<svg width="575" height="408" viewBox="0 0 575 408" fill="none" xmlns="http://www.w3.org/2000/svg">
<path d="M50 50L194 358" stroke="#6558F5" stroke-width="20"/>
<rect width="100" height="100" fill="#6558F5"/>
<rect x="15" y="15" width="70" height="70" fill="white"/>
<rect x="244" width="100" height="100" fill="#6558F5"/>
<rect x="144" y="308" width="100" height="100" fill="#6558F5"/>
<rect x="144" y="308" width="100" height="100" fill="#6558F5"/>
<rect x="350" y="308" width="100" height="100" fill="#6558F5"/>
<path d="M194 358L294 50" stroke="#6558F5" stroke-width="20"/>
<path d="M294 50L400 358" stroke="#6558F5" stroke-width="20"/>
<path d="M564 1.05823e-05L469.863 66.869L574.842 114.96L564 1.05823e-05ZM409.091 362.165L535.608 85.9878L517.425 77.6583L390.909 353.835L409.091 362.165Z" fill="#6558F5"/>
<rect x="159" y="323" width="70" height="70" fill="white"/>
<rect x="259" y="15" width="70" height="70" fill="white"/>
<rect x="365" y="323" width="70" height="70" fill="white"/>
</svg>
